<svg id="visual" viewBox="0 0 900 600" width="900" height="600" xmlns="http://www.w3.org/2000/svg" xmlns:xlink="http://www.w3.org/1999/xlink" version="1.1">
	<g>
		<g transform="translate(664 503)">
			<path d="M0 -80.1L69.4 -40.1L69.4 40.1L0 80.1L-69.4 40.1L-69.4 -40.1Z" fill="#63d3f81a"></path>
		</g>
		<g transform="translate(798 367)">
			<path d="M0 -53L45.9 -26.5L45.9 26.5L0 53L-45.9 26.5L-45.9 -26.5Z" fill="#63d3f81a"></path>
		</g>
		<g transform="translate(501 434)">
			<path d="M0 -48L41.6 -24L41.6 24L0 48L-41.6 24L-41.6 -24Z" fill="#63d3f81a"></path>
		</g>
		<g transform="translate(154 201)">
			<path d="M0 -57L49.4 -28.5L49.4 28.5L0 57L-49.4 28.5L-49.4 -28.5Z" fill="#63d3f81a"></path>
		</g>
		<g transform="translate(21 541)">
			<path d="M0 -69L59.8 -34.5L59.8 34.5L0 69L-59.8 34.5L-59.8 -34.5Z" fill="#63d3f81a"></path>
		</g>
		<g transform="translate(640 59)">
			<path d="M0 -14L12.1 -7L12.1 7L0 14L-12.1 7L-12.1 -7Z" fill="#63d3f81a"></path>
		</g>
		<g transform="translate(377 255)">
			<path d="M0 -50L43.3 -25L43.3 25L0 50L-43.3 25L-43.3 -25Z" fill="#63d3f81a"></path>
		</g>
		<g transform="translate(136 382)">
			<path d="M0 -65L56.3 -32.5L56.3 32.5L0 65L-56.3 32.5L-56.3 -32.5Z" fill="#63d3f81a"></path>
		</g>
		<g transform="translate(305 520)">
			<path d="M0 -53L45.9 -26.5L45.9 26.5L0 53L-45.9 26.5L-45.9 -26.5Z" fill="#63d3f81a"></path>
		</g>
		<g transform="translate(540 246)">
			<path d="M0 -51L44.2 -25.5L44.2 25.5L0 51L-44.2 25.5L-44.2 -25.5Z" fill="#63d3f81a"></path>
		</g>
		<g transform="translate(886 533)">
			<path d="M0 -28L24.2 -14L24.2 14L0 28L-24.2 14L-24.2 -14Z" fill="#63d3f81a"></path>
		</g>
		<g transform="translate(275 91)">
			<path d="M0 -36L31.2 -18L31.2 18L0 36L-31.2 18L-31.2 -18Z" fill="#63d3f81a"></path>
		</g>
		<g transform="translate(798 100)">
			<path d="M0 -50L43.3 -25L43.3 25L0 50L-43.3 25L-43.3 -25Z" fill="#63d3f81a"></path>
		</g>
		<g transform="translate(33 65)">
			<path d="M0 -20L17.3 -10L17.3 10L0 20L-17.3 10L-17.3 -10Z" fill="#63d3f81a"></path>
		</g>
		<g transform="translate(456 45)">
			<path d="M0 -56L48.5 -28L48.5 28L0 56L-48.5 28L-48.5 -28Z" fill="#63d3f81a"></path>
		</g>
		<g transform="translate(456 598)">
			<path d="M0 -20L17.3 -10L17.3 10L0 20L-17.3 10L-17.3 -10Z" fill="#63d3f81a"></path>
		</g>
	</g>
</svg>